<svg width="100" height="100" viewBox="0 0 100 100" fill="none" xmlns="http://www.w3.org/2000/svg">
  <g opacity="0.5">
    <circle cx="0" cy="0" r="1" fill="#10B981" />
    <circle cx="20" cy="0" r="1" fill="#10B981" />
    <circle cx="40" cy="0" r="1" fill="#10B981" />
    <circle cx="60" cy="0" r="1" fill="#10B981" />
    <circle cx="80" cy="0" r="1" fill="#10B981" />
    <circle cx="100" cy="0" r="1" fill="#10B981" />
    
    <circle cx="0" cy="20" r="1" fill="#10B981" />
    <circle cx="20" cy="20" r="1" fill="#10B981" />
    <circle cx="40" cy="20" r="1" fill="#10B981" />
    <circle cx="60" cy="20" r="1" fill="#10B981" />
    <circle cx="80" cy="20" r="1" fill="#10B981" />
    <circle cx="100" cy="20" r="1" fill="#10B981" />
    
    <circle cx="0" cy="40" r="1" fill="#10B981" />
    <circle cx="20" cy="40" r="1" fill="#10B981" />
    <circle cx="40" cy="40" r="1" fill="#10B981" />
    <circle cx="60" cy="40" r="1" fill="#10B981" />
    <circle cx="80" cy="40" r="1" fill="#10B981" />
    <circle cx="100" cy="40" r="1" fill="#10B981" />
    
    <circle cx="0" cy="60" r="1" fill="#10B981" />
    <circle cx="20" cy="60" r="1" fill="#10B981" />
    <circle cx="40" cy="60" r="1" fill="#10B981" />
    <circle cx="60" cy="60" r="1" fill="#10B981" />
    <circle cx="80" cy="60" r="1" fill="#10B981" />
    <circle cx="100" cy="60" r="1" fill="#10B981" />
    
    <circle cx="0" cy="80" r="1" fill="#10B981" />
    <circle cx="20" cy="80" r="1" fill="#10B981" />
    <circle cx="40" cy="80" r="1" fill="#10B981" />
    <circle cx="60" cy="80" r="1" fill="#10B981" />
    <circle cx="80" cy="80" r="1" fill="#10B981" />
    <circle cx="100" cy="80" r="1" fill="#10B981" />
    
    <circle cx="0" cy="100" r="1" fill="#10B981" />
    <circle cx="20" cy="100" r="1" fill="#10B981" />
    <circle cx="40" cy="100" r="1" fill="#10B981" />
    <circle cx="60" cy="100" r="1" fill="#10B981" />
    <circle cx="80" cy="100" r="1" fill="#10B981" />
    <circle cx="100" cy="100" r="1" fill="#10B981" />
  </g>
</svg> 